<svg xmlns="http://www.w3.org/2000/svg" width="53" height="96" viewBox="0 0 53 96">
    <g fill="#3459D6" fill-rule="evenodd">
        <path d="M13 14v6.607l6.787 6.736v-6.605h3.358v9.838L26.583 34l3.35-3.338v-9.924h3.282v6.737L40 20.74V14z"/>
        <path d="M1.136 0L.27.124H0l.003 26.593L45.62 72.654V88.58H7.404V72.626l13.792-14.155-5.155.087-.071-5.319L.045 69.55.038 96H53l-.012-26.422L7.369 23.642V7.421H45.62v16.3l-6.348 6.393-.017-.018-7.624 7.678-.009 5.334 5.162-.01.11-.112.008.009L52.988 26.8V.91l-.04-.873z"/>
    </g>
</svg>
