<svg xmlns="http://www.w3.org/2000/svg" width="183" height="160" viewBox="0 0 183 160">

    <g fill="none" fill-rule="evenodd">
        <path fill="#FFF" d="M178.46 108.804h-58.107c.076 16.014-3.63 24.021-11.117 24.021H75.77c-7.49-2.1-11.234-6.103-11.234-12.01v-12.01H6.617l6.296-13.548 20.63-37.106h117.118l27.799 50.653z"/>
        <path fill="#4970EF" fill-opacity=".25" d="M9.373 158.916c-2.062 0-3.749-1.546-3.749-3.436v-43.278c0-1.896 1.687-3.435 3.749-3.435h52.554c2.069 0 3.749 1.539 3.749 3.435v10.018c0 4.135 8.45 12.272 12.949 9.884h28.335c4.498 0 11.747-5.749 11.747-9.884v-10.018c0-1.896-1.902-3.435.167-3.435h57.329c2.069 0 3.749 1.539 3.749 3.435v43.278c0 1.897-1.68 3.436-3.749 3.436H9.373z"/>
        <path fill="#4C72F4" d="M6.347 110.15H63v9.768c0 7.807 6.349 14.16 14.152 14.16H106.8c7.803 0 14.15-6.353 14.15-14.16v-9.768h56.656v46.084H6.346V110.15zm172.933 49.432c.922 0 1.672-.75 1.672-1.674v-49.283a3.714 3.714 0 0 0-.08-.386l-.055-.224c-.022-.085-.038-.169-.067-.249-.666-1.18-9.59-16.949-28.463-50.296a1.677 1.677 0 0 0-1.455-.852h-25.963v3.34h24.982l26.558 46.844h-57.131c-.923 0-1.674.751-1.674 1.674v11.442c0 5.961-4.847 10.812-10.804 10.812H77.153c-5.957 0-10.804-4.85-10.804-10.812v-11.442c0-.923-.751-1.674-1.674-1.674H7.545l26.548-46.844h24.984v-3.34H33.12c-.604 0-1.162.322-1.456.84l-28.368 50.05a4.34 4.34 0 0 0-.162.525l-.035.13c-.021.076-.045.15-.06.227l-.04 49.52c0 .921.752 1.672 1.675 1.672H179.28z"/>
        <g class="movingY" fill="none" fill-rule="evenodd">
            <path fill="#FFF" fill-rule="nonzero" d="M122.242 32.865c0-16.741-13.625-30.363-30.371-30.363S61.5 16.124 61.5 32.865v47.524l6.92-6.365a4.43 4.43 0 0 1 3.242-1.175c1.2.057 2.31.584 3.112 1.477l7.347 8.174 6.333-7.507a4.468 4.468 0 0 1 3.419-1.587c1.32 0 2.567.579 3.417 1.587l6.334 7.507 7.347-8.172a4.443 4.443 0 0 1 3.116-1.478 4.471 4.471 0 0 1 3.239 1.175l6.916 6.361V32.865z"/>
            <path fill="#9AABAF" fill-opacity=".425" fill-rule="nonzero" d="M122.242 32.863c0-16.741-13.625-30.363-30.371-30.363S61.5 16.122 61.5 32.863v47.524l6.92-6.365a4.43 4.43 0 0 1 3.242-1.175c1.2.057 2.31.584 3.112 1.477l7.347 8.174 6.333-7.507a4.468 4.468 0 0 1 3.419-1.587c1.32 0 2.567.579 3.417 1.587l6.334 7.508 7.347-8.173a4.443 4.443 0 0 1 3.116-1.478 4.471 4.471 0 0 1 3.239 1.175l6.916 6.362V32.863zm2.505 50.062a1.372 1.372 0 0 1-.825 1.268c-.6.265-1.129.097-1.502-.248l-8.787-8.083a1.97 1.97 0 0 0-1.43-.517 1.942 1.942 0 0 0-1.372.651l-8.172 9.089a1.33 1.33 0 0 1-1.062.496c-.51-.016-.827-.218-1.06-.493l-7.158-8.485a1.961 1.961 0 0 0-1.505-.7c-.586 0-1.134.255-1.51.7l-7.152 8.478c-.052.063-.052.063-.216.21a1.376 1.376 0 0 1-.825.288l-.31-.034a1.382 1.382 0 0 1-.745-.426l-8.202-9.124a1.946 1.946 0 0 0-1.37-.65 1.93 1.93 0 0 0-1.431.517l-8.75 8.046c-.37.37-.924.55-1.538.284A1.368 1.368 0 0 1 59 82.923v-50.06C59 14.74 73.744 0 91.87 0c18.127 0 32.872 14.74 32.872 32.863v48.812l.005 1.25z"/>
            <path fill="#9AABAF" fill-opacity=".425" fill-rule="nonzero" d="M87.553 23.872c-.643-1.838-2.008-3.452-3.773-4.454a8.957 8.957 0 0 0-5.157-1.139 8.857 8.857 0 0 0-5.034 2.058c-1.53 1.288-2.556 3.108-2.827 5.032-.236 1.518.007 3.115.676 4.545 2.277.002 4.638.002 7.9.002H87.243c.89-1.88 1.013-4.088.31-6.044zm-2.532-6.624c2.279 1.293 4.047 3.384 4.888 5.789 1.03 2.864.716 6.126-.838 8.763l-.363.616H79.338c-3.625 0-6.137 0-8.658-.003l-.72-.001-.36-.624c-1.195-2.066-1.667-4.489-1.311-6.786.356-2.522 1.693-4.897 3.685-6.574a11.345 11.345 0 0 1 6.448-2.64c2.294-.188 4.636.329 6.599 1.46zM111.848 24.567c-.645-2.637-2.78-4.915-5.48-5.828a9.09 9.09 0 0 0-6.526.248l-.5-1.146.492 1.149c-2.571 1.101-4.495 3.478-4.95 6.12-.298 1.595-.067 3.29.636 4.802a4362.796 4362.796 0 0 0 10.064.004h5.742a7.983 7.983 0 0 0 .522-5.349zm-4.669-8.193c3.492 1.18 6.246 4.121 7.094 7.587.672 2.63.265 5.482-1.116 7.837l-.363.618h-.716a7767.338 7767.338 0 0 0-8.658 0c-3.61 0-6.135 0-8.662-.005l-.722-.002-.36-.626c-1.245-2.17-1.7-4.722-1.252-7.114.597-3.47 3.084-6.544 6.422-7.975a11.582 11.582 0 0 1 8.333-.32z"/>
            <path fill="#9AABAF" fill-opacity=".425" d="M83.666 36.847c.03-.772.778-1.434 1.597-1.43.841-.037 1.628.633 1.661 1.426.019.656 0 1.312.008 1.97h4.564c.01-.625-.02-1.25.015-1.872.047-.757.783-1.397 1.586-1.396.833-.041 1.62.614 1.667 1.4.024.622.002 1.244.008 1.866 1.365 0 2.73.007 4.095-.004 0-.584-.016-1.171.003-1.756.042-.784.824-1.442 1.656-1.407.808-.005 1.55.638 1.596 1.399.04.588.006 1.18.018 1.77.702.025 1.51-.134 2.092.337.804.566.813 1.82.014 2.396-.582.485-1.4.321-2.107.349-.046.73.185 1.584-.375 2.192-.601.723-1.891.736-2.504.02-.587-.607-.35-1.474-.397-2.213h-4.09c-.014.534.024 1.068-.018 1.6-.095.79-.931 1.411-1.772 1.318-.76-.053-1.428-.667-1.476-1.386-.028-.51 0-1.023-.012-1.533h-4.563c-.008.674.012 1.347-.008 2.022-.042.824-.901 1.5-1.771 1.41-.77-.052-1.45-.676-1.489-1.406-.025-.675 0-1.35-.01-2.025-.913-.005-1.827.008-2.738-.005-.781-.007-1.484-.619-1.562-1.347-.09-.621.27-1.27.865-1.554.406-.211.885-.174 1.333-.177.7.002 1.402.001 2.103.001.01-.655-.017-1.31.011-1.965"/>
        </g>
    </g>
</svg>
