<svg xmlns="http://www.w3.org/2000/svg" width="20" height="20" viewBox="0 0 20 20">
    <g fill="#9AABAF" fill-rule="evenodd">
        <path fill-rule="nonzero" d="M10 18.855a8.855 8.855 0 1 0 0-17.71 8.855 8.855 0 0 0 0 17.71zM10 20C4.477 20 0 15.523 0 10S4.477 0 10 0s10 4.477 10 10-4.477 10-10 10z"/>
        <path d="M6.729 12.879l1.09-1.058c.425.392.96.905 1.669.905.84 0 1.166-.316 1.166-.807 0-.621-.85-.807-1.7-1.123-.851-.316-1.702-.785-1.702-1.963 0-1.34.894-2.039 2.083-2.148V5.638h.981v1.069c.698.11 1.298.393 1.92.85l-.95 1.178c-.457-.36-.948-.665-1.57-.665-.381 0-.774.229-.774.665 0 .469.85.622 1.712.96.883.338 1.788.872 1.788 2.126 0 1.352-1.046 2.072-2.202 2.268v1.101h-.981v-1.057c-1.015-.077-1.778-.513-2.53-1.254z"/>
    </g>
</svg>
