<svg width="20" height="20" xmlns="http://www.w3.org/2000/svg" viewBox="0 0 20 20">
  <g stroke="null">
   <rect stroke="null" id="svg_2" height="4.004445" width="4.004445" y="10.656708" x="11.813334"/>
   <path stroke="null" id="svg_3" d="m14.495556,3.781152l0,-1.586667l-1.322222,0l0,1.586667l-6.346667,0l0,-1.586667l-1.322222,0l0,1.586667l-4.004445,0l0,13.524445l17,0l0,-13.524445l-4.004445,0zm2.682222,12.202222l-14.355556,0l0,-10.88l2.682222,0l0,1.095556l1.322222,0l0,-1.095556l6.308889,0l0,1.095556l1.322222,0l0,0l0,-1.095556l2.72,0l0,10.88z"/>
  </g>
</svg>