<svg xmlns="http://www.w3.org/2000/svg" width="30" height="30" viewBox="0 0 30 30">
    <g fill="#566265" fill-rule="evenodd">
        <path d="M2.688 7.087a1.35 1.35 0 0 1 1.348-1.349h11.247c.744 0 1.35.605 1.35 1.35v2.441h-.3c-1.157 0-2.1.942-2.1 2.099v.79h-.889c-2.027 0-3.872 1.429-4.385 3.397l-.004.013h-.647c-.526 0-1.007.264-1.312.713a43.282 43.282 0 0 0-.912-1l-.184-.197-.065-.069H4.036a1.35 1.35 0 0 1-1.348-1.349V7.087zm21.944 14.481V24.452H10.439v-2.883l-.219.004-1.896.028-.033-4.147H10.39l.016-.196.047-.552a2.917 2.917 0 0 1 2.891-2.66h2.519v-2.418c0-.26.21-.472.469-.472h2.408c.26 0 .47.212.47.472v2.418h2.518a2.92 2.92 0 0 1 2.892 2.663l.045.544.017.2.201-.002 1.865-.028.002 4.145h-2.118zm2.131-5.74h-.646l-.004-.014c-.513-1.968-2.357-3.396-4.385-3.396h-.89v-.79a2.101 2.101 0 0 0-2.098-2.099h-.42V7.087a3.04 3.04 0 0 0-3.037-3.036H4.037A3.04 3.04 0 0 0 1 7.087v6.84a3.04 3.04 0 0 0 3.037 3.035h1.066a64.76 64.76 0 0 1 1.59 1.786v2.835c0 .89.725 1.613 1.615 1.613h.502v2.882h17.452v-2.882h.501c.891 0 1.616-.724 1.616-1.613v-4.141c0-.89-.725-1.614-1.616-1.614z"/>
        <path d="M14.08 19.855c-.653 0-1.184-.57-1.184-1.271 0-.702.53-1.274 1.184-1.274.655 0 1.188.572 1.188 1.274 0 .7-.533 1.271-1.188 1.271m0-4.174c-1.553 0-2.816 1.301-2.816 2.9 0 1.6 1.263 2.903 2.816 2.903 1.554 0 2.818-1.303 2.818-2.902 0-1.6-1.264-2.9-2.818-2.9M20.99 19.855c-.654 0-1.186-.57-1.186-1.271 0-.702.532-1.274 1.186-1.274.655 0 1.188.572 1.188 1.274 0 .7-.533 1.271-1.188 1.271m0-4.174c-1.553 0-2.816 1.301-2.816 2.9 0 1.6 1.263 2.903 2.816 2.903s2.818-1.303 2.818-2.902c0-1.6-1.265-2.9-2.818-2.9M16.452 21.423h-.215V23.051h2.597V21.423h-.214z"/>
    </g>
</svg>
