<svg xmlns="http://www.w3.org/2000/svg" width="24" height="24" viewBox="0 0 24 24">
    <g fill="none" fill-rule="evenodd">
        <path d="M12 5c3.866 0 7 3.134 7 7s-3.134 7-7 7-7-3.134-7-7 3.134-7 7-7zm0 1.2c-3.203 0-5.8 2.597-5.8 5.8s2.597 5.8 5.8 5.8 5.8-2.597 5.8-5.8-2.597-5.8-5.8-5.8z" transform="translate(-1005 -461) translate(1005 461)"/>
        <path d="M12.5 11.4c.298 0 .546.218.592.503L13.1 12v3.6c0 .331-.269.6-.6.6-.298 0-.546-.218-.592-.503L11.9 15.6V12c0-.331.269-.6.6-.6z" transform="translate(-1005 -461) translate(1005 461)"/>
        <path d="M9.04 9.116c.188-.226.508-.279.755-.139l.09.062 3 2.5c.254.212.288.59.076.845-.189.226-.509.279-.756.139l-.09-.062-3-2.5c-.254-.212-.288-.59-.076-.845z" transform="translate(-1005 -461) translate(1005 461)"/>
    </g>
</svg>
