<svg xmlns="http://www.w3.org/2000/svg" width="20" height="20" viewBox="0 0 20 20">
    <g fill="#9AABAF" fill-rule="evenodd">
        <path d="M10.13 13.478a1.523 1.523 0 0 1-1.521-1.521.784.784 0 0 0-1.565 0 3.09 3.09 0 0 0 3.087 3.087.784.784 0 0 0 0-1.566"/>
        <path d="M10.13 17.261a5.572 5.572 0 0 1-5.565-5.565c0-4.126 4.246-7.68 5.576-8.692 1.33.97 5.555 4.394 5.555 8.692 0 1.484-.58 2.88-1.632 3.933a5.528 5.528 0 0 1-3.933 1.632m.42-15.878a.782.782 0 0 0-.857.01C9.421 1.578 3 5.953 3 11.697a7.139 7.139 0 0 0 7.13 7.13 7.139 7.139 0 0 0 7.131-7.13c0-5.97-6.436-10.138-6.71-10.313"/>
    </g>
</svg>
