<svg width="24px" height="24px" viewBox="0 0 24 24" version="1.1" xmlns="http://www.w3.org/2000/svg" xmlns:xlink="http://www.w3.org/1999/xlink">
    <g id="icon-share">
        <path d="M13.501385,10.7774517 C14.999656,12.2757227 15.0495984,14.5872314 13.6512121,16.1397183 L13.501385,16.2975483 L11.681385,18.1175483 C10.1314494,19.6674839 7.71122383,19.6674839 6.16128829,18.1175483 C4.66301726,16.6192773 4.61307489,14.3077686 6.01988711,12.747026 L6.17061626,12.5883121 L7.79561626,11.0283121 L8.682057,11.9516879 L7.06638497,13.5025483 C6.01632051,14.5526128 6.01632051,16.1623872 7.06638497,17.2124517 C8.07269674,18.2187634 9.59304769,18.2606931 10.6421961,17.3382406 L10.7762883,17.2124517 L12.5962883,15.3924517 C13.6026001,14.3861399 13.6445297,12.8657889 12.7220773,11.8166406 L12.5962883,11.6825483 L13.501385,10.7774517 Z M18.116385,6.16245166 C19.614656,7.66072269 19.6645984,9.97223141 18.2577861,11.532974 L18.107057,11.6916879 L16.482057,13.2516879 L15.5956163,12.3283121 L17.2112883,10.7774517 C18.2613527,9.72738721 18.2613527,8.11761279 17.2112883,7.06754834 C16.2049765,6.06123657 14.6846256,6.01930692 13.6354772,6.94175937 L13.501385,7.06754834 L11.681385,8.88754834 C10.6750732,9.89386011 10.6331435,11.4142111 11.555596,12.4633594 L11.681385,12.5974517 L10.7762883,13.5025483 C9.27801726,12.0042773 9.22807489,9.69276859 10.6264612,8.14028172 L10.7762883,7.98245166 L12.5962883,6.16245166 C14.1462238,4.61251611 16.5664494,4.61251611 18.116385,6.16245166 Z" id="Path" fill-rule="nonzero"></path>
    </g>
</svg>