<svg xmlns="http://www.w3.org/2000/svg" width="24" height="24" viewBox="0 0 24 24">
    <g fill="none" fill-rule="evenodd" stroke-linecap="round" stroke-linejoin="round">
        <g stroke="#9AABAF" stroke-width="1.28">
            <path d="M7.41 5.59h0c1.3 1.3 1.3 3.315 0 4.615l-1.82 1.82c-1.3 1.3-3.315 1.3-4.615 0h0c-1.3-1.3-1.3-3.315 0-4.615L2.6 5.85" transform="translate(-1185 -152) translate(1174 141) translate(11 11) translate(6 6)"/>
            <path d="M5.59 7.41h0c-1.3-1.3-1.3-3.315 0-4.615L7.41.975c1.3-1.3 3.315-1.3 4.615 0h0c1.3 1.3 1.3 3.315 0 4.615L10.4 7.15" transform="translate(-1185 -152) translate(1174 141) translate(11 11) translate(6 6)"/>
        </g>
    </g>
</svg>
