<svg xmlns="http://www.w3.org/2000/svg" width="24" height="25" viewBox="0 0 24 25">
    <g fill="none" fill-rule="evenodd">
        <path d="M14 3.405c.326 0 .597.244.643.563l.007.098-.001 2.388H19c.359 0 .65.296.65.66 0 .332-.24.607-.554.654L19 7.775h-.351l.001 8.826c0 1.762-1.06 3.26-2.49 3.365l-.16.006H8c-1.457 0-2.568-1.435-2.646-3.176L5.35 16.6l-.001-8.826H5c-.359 0-.65-.295-.65-.66 0-.332.24-.607.554-.654L5 6.454h4.349l.001-2.388c0-.332.24-.607.554-.654L10 3.405h4zm3.349 4.37h-10.7L6.65 16.6c0 1.105.585 1.956 1.24 2.043l.11.007h8c.662 0 1.281-.793 1.345-1.868l.005-.182-.001-8.826zM12 10.52c.326 0 .597.244.643.563l.007.097v5.082c0 .365-.291.661-.65.661-.326 0-.597-.245-.643-.563l-.007-.098V11.18c0-.365.291-.66.65-.66zm3 0c.326 0 .597.244.643.563l.007.097v5.082c0 .365-.291.661-.65.661-.326 0-.597-.245-.643-.563l-.007-.098V11.18c0-.365.291-.66.65-.66zm-6 0c.326 0 .597.244.643.563l.007.097v5.082c0 .365-.291.661-.65.661-.326 0-.597-.245-.643-.563l-.007-.098V11.18c0-.365.291-.66.65-.66zm4.35-5.794h-2.7l-.001 1.728h2.7l.001-1.728z" transform="translate(-1289 -851) translate(228 831) translate(1061 20.328)"/>
    </g>
</svg>
