<svg xmlns="http://www.w3.org/2000/svg" width="24" height="24" viewBox="0 0 24 24">
    <g fill="none" fill-rule="evenodd">
        <path d="M14.874 4.178l3.956 4.018c.036.037.065.074.089.115l.018.033.004.008.004.009.004.01.007.015.016.044c.011.034.019.069.023.105l-.015-.079.007.03c.009.04.013.081.013.124l-.007-.085.002.01.003.02.002.033V19.43c0 .867-.712 1.57-1.585 1.57H6.585C5.712 21 5 20.296 5 19.429V5.57C5 4.704 5.712 4 6.585 4h7.865l.038.001.03.004c.024.002.047.006.07.011l.032.01c.095.027.18.079.25.147l.004.005zm-1.019 1.005h-7.27c-.219 0-.396.176-.396.388V19.43c0 .212.177.387.396.387h10.83c.219 0 .396-.175.396-.387V9.2H14.45c-.295 0-.54-.213-.587-.495l-.008-.096V5.183zM12 10.126c.328 0 .595.264.595.591l-.001 4.101 1.123-1.108c.206-.204.524-.227.755-.068l.082.068c.234.23.234.608 0 .84l-2.135 2.11c-.112.113-.263.173-.42.173l-.091-.007c-.03-.004-.06-.011-.09-.02l-.034-.013c-.074-.029-.144-.073-.203-.131l-2.137-2.113c-.234-.23-.234-.608 0-.84.232-.228.606-.228.838 0l1.123 1.112v-4.104c0-.251.16-.47.412-.558l.099-.027.05-.005zm4.99-2.109l-1.946-1.976v1.976h1.946z" transform="translate(-1291 -152) translate(1280 141) translate(11 11)"/>
    </g>
</svg>
