<svg xmlns="http://www.w3.org/2000/svg" xmlns:xlink="http://www.w3.org/1999/xlink" width="30" height="30" viewBox="0 0 30 30">
    <g fill="none" fill-rule="evenodd">
        <g transform="translate(9 4.988)">
            <path d="M10 4.536H7.56V2.098L10 4.536zm2.075.503l-.043-.136-.101-.162L7.36.173 7.239.087l-.18-.065a.567.567 0 0 0-.11-.01H.61a.611.611 0 0 0-.61.61v13.582c0 .337.274.611.61.611h2.255a.612.612 0 0 0 0-1.22H1.22V1.231h5.122v3.914c0 .336.272.61.61.61h3.914v7.838H9.222a.612.612 0 0 0-.611.61c0 .337.274.611.61.611h2.255c.335 0 .61-.274.61-.61V5.148a.595.595 0 0 0-.01-.11z"/>
        </g>
        <g transform="translate(11 16.988)">
            <path d="M6.082 4.487l-1.428 1.43V1.28a.61.61 0 0 0-1.22 0v4.635l-1.43-1.429a.613.613 0 0 0-.861 0 .605.605 0 0 0-.18.433c0 .163.064.316.18.431l2.47 2.47a.605.605 0 0 0 .43.18.638.638 0 0 0 .232-.047.584.584 0 0 0 .2-.133l2.47-2.47a.603.603 0 0 0 0-.864.613.613 0 0 0-.863 0" />
        </g>
    </g>
</svg>
