<svg xmlns="http://www.w3.org/2000/svg" width="24" height="25" viewBox="0 0 24 25">
    <g fill="none" fill-rule="evenodd">
        <path d="M15.54 4.615c.254-.258.666-.258.92 0l3 3.049c.253.258.253.676 0 .934l-10 10.164c-.023.023-.047.044-.072.063l.072-.063c-.034.034-.07.064-.108.089-.015.01-.03.019-.046.027l-.036.018c-.035.017-.073.03-.112.04l.058-.018-.038.013-.02.005-4 1.016c-.476.121-.908-.317-.789-.8l1-4.066.008-.029.01-.03.021-.054c.005-.011.01-.023.017-.035.01-.02.021-.039.033-.057.006-.01.012-.019.02-.028.018-.026.04-.05.062-.074zM6.351 16.537l-.458 1.867 1.835-.468-1.377-1.399zM14 8.048l-7.08 7.197 2.08 2.115 7.081-7.197L14 8.048zM16 6.016l-1.082 1.098L17 9.23l1.082-1.098L16 6.016z" transform="translate(-1256 -851) translate(228 831) translate(1028 20.328)"/>
    </g>
</svg>
