<svg xmlns="http://www.w3.org/2000/svg" width="20" height="20" viewBox="0 0 20 20">
    <g fill-rule="evenodd">
        <path d="M9.924 14.58c-3.928 0-7.344-3.654-8.373-4.875C2.578 8.48 5.987 4.83 9.924 4.83c3.936 0 7.343 3.654 8.372 4.875-1.027 1.223-4.436 4.875-8.372 4.875m9.79-5.265c-.177-.24-4.402-5.815-9.79-5.815C4.535 3.5.31 9.075.13 9.315a.652.652 0 0 0 0 .782c.18.237 4.405 5.812 9.794 5.812 5.388 0 9.613-5.575 9.79-5.812a.651.651 0 0 0 0-.782"/>
        <path d="M9.924 12.28c-1.459 0-2.641-1.153-2.641-2.575 0-1.423 1.182-2.575 2.64-2.575 1.46 0 2.642 1.152 2.642 2.575-.002 1.421-1.183 2.573-2.641 2.575m0-6.48c-2.212 0-4.005 1.748-4.005 3.905 0 2.156 1.793 3.904 4.005 3.904 2.211 0 4.004-1.748 4.004-3.904-.002-2.156-1.794-3.902-4.004-3.905"/>
    </g>
</svg>
