<svg xmlns="http://www.w3.org/2000/svg" width="20" height="20" viewBox="0 0 20 20">
    <path fill-rule="evenodd" d="M9.333 0v2.685l-1.506-.881-.66 1.158L9.332 4.23v4.608L5.39 6.532V4H4.068V5.76L1.77 4.42l-.66 1.158 2.3 1.344-1.511.882.66 1.158 2.172-1.268L8.68 10l-3.95 2.309-2.173-1.271-.661 1.159 1.513.883-2.298 1.343.662 1.157 2.294-1.341V16H5.39v-2.532l3.943-2.306v4.61l-2.165 1.264.661 1.159 1.504-.88V20h1.322v-2.688l1.513.885.66-1.16-2.173-1.268v-4.615l3.95 2.307v2.54h1.32v-1.768l2.301 1.344.662-1.158-2.297-1.342 1.508-.882-.66-1.159-2.17 1.268L11.323 10l3.944-2.305 2.169 1.267.66-1.158-1.506-.88 2.298-1.344-.66-1.157-2.303 1.345V4h-1.32v2.539l-3.95 2.308V4.232L12.83 2.96l-.66-1.158-1.516.885V0z"/>
</svg>
