<svg xmlns="http://www.w3.org/2000/svg" width="20" height="20" viewBox="0 0 20 20">
    <path fill="#4C72F4" fill-rule="evenodd" d="M12.563 18.374V14.46a5.185 5.185 0 0 0 1.899-1.901h3.913a8.791 8.791 0 0 1-5.812 5.815m-3.882.274V14.97c.422.112.863.178 1.319.178.457 0 .898-.066 1.321-.178v3.677a8.7 8.7 0 0 1-1.321.11c-.45 0-.887-.044-1.319-.11m-7.056-6.089h3.913a5.182 5.182 0 0 0 1.902 1.902v3.913a8.792 8.792 0 0 1-5.815-5.815M7.438 1.626V5.54a5.177 5.177 0 0 0-1.896 1.896H1.626a8.793 8.793 0 0 1 5.812-5.81m3.88-.274v3.677A5.104 5.104 0 0 0 10 4.85c-.457 0-.899.065-1.321.179V1.352c.432-.065.87-.11 1.32-.11.45 0 .889.045 1.32.11m7.054 6.084H14.46a5.19 5.19 0 0 0-1.899-1.897V1.625a8.792 8.792 0 0 1 5.813 5.81M14.97 8.678h3.678c.065.433.11.872.11 1.323 0 .449-.044.887-.11 1.318h-3.676c.112-.422.177-.862.177-1.318 0-.458-.066-.9-.179-1.323M1.242 10c0-.45.044-.89.11-1.323H5.03A5.132 5.132 0 0 0 4.851 10c0 .456.066.896.178 1.318H1.352A8.76 8.76 0 0 1 1.242 10M10 13.908A3.912 3.912 0 0 1 6.094 10 3.911 3.911 0 0 1 10 6.092 3.912 3.912 0 0 1 13.908 10 3.912 3.912 0 0 1 10 13.908M10 0C4.486 0 0 4.486 0 10c0 5.513 4.486 10 10 10 5.513 0 10-4.487 10-10 0-5.514-4.487-10-10-10"/>
</svg>
