<svg xmlns="http://www.w3.org/2000/svg" width="20" height="20" viewBox="0 0 20 20">
    <g fill="#9AABAF" fill-rule="nonzero">
        <path d="M13.803 12.282a3.218 3.218 0 0 1-3.221-3.229v-2.2a3.218 3.218 0 0 1 3.22-3.229h2.196c1.784 0 3.22 1.44 3.22 3.229v2.328c0 2.56-2.464 7.195-4.318 7.195h-.852l.234-.822c.298-1.046.488-1.962.69-3.272h-1.17zm4.13-3.1V6.852a1.93 1.93 0 0 0-1.935-1.94h-2.195a1.93 1.93 0 0 0-1.935 1.94v2.2c0 1.077.861 1.94 1.935 1.94h2.656l-.105.736c-.141.986-.269 1.766-.418 2.486.944-1.28 1.996-3.661 1.996-5.034zM4.002 12.282a3.218 3.218 0 0 1-3.22-3.229v-2.2a3.218 3.218 0 0 1 3.22-3.229h2.195c1.784 0 3.221 1.44 3.221 3.229v2.328c0 2.56-2.464 7.195-4.318 7.195h-.853l.234-.822c.298-1.046.489-1.962.69-3.272H4.002zm4.13-3.1V6.852a1.93 1.93 0 0 0-1.935-1.94H4.002a1.93 1.93 0 0 0-1.934 1.94v2.2c0 1.077.86 1.94 1.934 1.94h2.656l-.105.736c-.14.986-.268 1.766-.417 2.486.943-1.28 1.996-3.661 1.996-5.034z"/>
    </g>
</svg>
