<svg xmlns="http://www.w3.org/2000/svg" width="20" height="20" viewBox="0 0 20 20">
    <path fill-rule="nonzero" d="M2.03 14.055L10 18.531l7.97-4.476-2.227-1.247-5.443 3.054a.604.604 0 0 1-.599 0l-5.444-3.054-2.227 1.247zm13.712-2.26l4.037 2.259-9.78 5.491-9.778-5.491 4.037-2.26.194.11L10 15.015l5.742-3.222zM4.257 8.75L2.03 9.997 10 14.472l7.97-4.475-2.227-1.247-5.442 3.053a.603.603 0 0 1-.6.001L4.257 8.75zm11.485-1.014l4.037 2.26-9.78 5.49-9.778-5.49 4.037-2.26.194.11L10 10.957l5.742-3.222zM10 1.47L2.03 5.945l7.97 4.47 7.97-4.47L10 1.47zm9.778 4.477L10 11.428.222 5.946 10 .455l9.778 5.49zM2.874 7.968L.35 6.555a.666.666 0 0 1-.279-.3c-.162-.338-.036-.753.275-.924L9.7.081a.602.602 0 0 1 .6-.001l9.35 5.248c.12.066.219.171.28.3.162.34.036.754-.276.925l-2.527 1.415 2.522 1.419c.121.065.22.17.281.3.162.338.036.753-.276.924l-2.527 1.415 2.522 1.419c.121.065.22.17.281.3.162.338.036.753-.275.924L10.3 19.92a.604.604 0 0 1-.6 0L.35 14.672a.666.666 0 0 1-.28-.3c-.161-.338-.035-.753.276-.923l2.528-1.422L.35 10.613a.666.666 0 0 1-.279-.3c-.162-.338-.036-.753.275-.923l2.528-1.422zM10 .926L1.066 5.942l3.615 2.024-.709.4L1.066 10l3.615 2.025-.709.398-2.907 1.635L10 19.074l8.935-5.016-3.616-2.033.71-.398L18.933 10 15.32 7.966l.71-.397 2.905-1.627L10 .926z"/>
</svg>
