<svg xmlns="http://www.w3.org/2000/svg" width="20" height="20" viewBox="0 0 20 20">
    <g fill="#466CF3" fill-rule="evenodd">
        <path d="M9.683 1.712c1.757 0 3.151 1.455 3.151 3.152S11.38 8.016 9.683 8.016c-1.698 0-3.152-1.455-3.152-3.152s1.394-3.152 3.152-3.152m0 7.577c2.424 0 4.364-2 4.364-4.364S12.107.5 9.683.5c-2.425 0-4.364 2-4.364 4.364S7.259 9.29 9.683 9.29"/>
        <path fill-rule="nonzero" d="M9.683 12.141c-2.485 0-4.67 2.096-5.38 5.13h10.76c-.71-3.034-2.895-5.13-5.38-5.13zm-7.095 6.496c.31-4.522 3.355-7.996 7.095-7.996 3.739 0 6.785 3.474 7.095 7.996l-.125.134H2.713l-.125-.134z"/>
    </g>
</svg>
