<svg xmlns="http://www.w3.org/2000/svg" width="20" height="20" viewBox="0 0 20 20">
    <path fill="#466CF3" fill-rule="evenodd" d="M10 9a2.739 2.739 0 0 0-2.75 2.75A2.739 2.739 0 0 0 10 14.5a2.739 2.739 0 0 0 2.75-2.75A2.739 2.739 0 0 0 10 9zm0-1.5a4.261 4.261 0 0 1 4.25 4.25A4.261 4.261 0 0 1 10 16a4.261 4.261 0 0 1-4.25-4.25A4.261 4.261 0 0 1 10 7.5zM7.5 3L6.25 5.5h-3.5C1.78 5.5 1 6.28 1 7.25v9c0 .97.78 1.75 1.75 1.75h14.5c.97 0 1.75-.78 1.75-1.75v-9c0-.97-.78-1.75-1.75-1.75h-3.5L12.5 3h-5z"/>
</svg>
