<svg xmlns="http://www.w3.org/2000/svg" width="20" height="20" viewBox="0 0 20 20">
    <path fill="#9AABAF" fill-rule="nonzero" stroke="#9AABAF" d="M11.245 17.997c-4.514.124-8.213-3.51-8.213-7.999H1.445a.44.44 0 0 1-.31-.755l2.474-2.488a.438.438 0 0 1 .63 0l2.474 2.488a.444.444 0 0 1-.32.755H4.807a6.213 6.213 0 0 0 6.297 6.221c3.3-.044 6.076-2.826 6.12-6.132.044-3.475-2.75-6.31-6.208-6.31-1.428 0-2.75.49-3.796 1.316a.88.88 0 0 1-1.171-.071c-.373-.374-.346-1.005.07-1.325A7.846 7.846 0 0 1 11.016 2c4.479 0 8.106 3.706 7.982 8.23-.115 4.168-3.592 7.651-7.752 7.767z"/>
</svg>
