<svg xmlns="http://www.w3.org/2000/svg" width="24" height="25" viewBox="0 0 24 25">
    <g fill="none" fill-rule="evenodd">
        <path d="M12 4.066c-2.562 0-4.844 1.23-6.309 3.138l-.099-.57c-.046-.294-.294-.51-.586-.513-.18-.002-.35.078-.466.218-.115.14-.163.326-.13.506l.348 2.002c.027.159.116.3.247.393.13.093.291.13.448.101l1.97-.352c.21-.038.386-.188.46-.392.073-.205.033-.434-.105-.601-.138-.167-.353-.247-.564-.209l-.523.094C7.937 6.3 9.848 5.285 12 5.285c3.763 0 6.8 3.088 6.8 6.912s-3.037 6.911-6.8 6.911-6.8-3.087-6.8-6.911c0-.06 0-.119.002-.177.009-.337-.253-.617-.584-.626-.332-.008-.607.258-.616.595L4 12.197c0 4.483 3.589 8.13 8 8.13s8-3.647 8-8.13c0-4.484-3.589-8.131-8-8.131zM10.79 9.35c-.137.002-.273.039-.395.112-.245.146-.395.413-.395.7v4.067c0 .287.15.554.395.7.124.075.265.113.405.113.134 0 .267-.035.388-.103l3.6-2.033c.254-.143.412-.415.412-.71 0-.296-.158-.567-.412-.711l-3.6-2.033c-.124-.07-.261-.104-.398-.102z" transform="translate(-1223 -851) translate(228 831) translate(995 20.328)"/>
    </g>
</svg>
