<svg xmlns="http://www.w3.org/2000/svg" width="34" height="38" viewBox="0 0 34 38">
    <g fill-rule="evenodd">
        <path stroke-width=".5" d="M4.077 0v8.152H0v1.631h4.077v3.263H0v1.63h4.077v3.262H0v1.63h4.077v3.26H0v1.63h4.077v3.264H0v1.63h4.077v8.152h29.351V0H4.077zm1.63 35.875h26.09V1.63H5.708v34.244z"/>
        <path d="M25.153 16.087l-.318.319-3.217-3.232.317-.319a2.27 2.27 0 0 1 3.218.087 2.293 2.293 0 0 1 0 3.145zm-9.156 9.19l-3.755.47.526-3.696 8.032-8.059 3.22 3.235-8.023 8.05zm5.12-13.243l-9.294 9.335a.581.581 0 0 0-.159.328l-.658 4.641a.58.58 0 0 0 .577.662h.073l4.693-.58a.575.575 0 0 0 .338-.166l9.283-9.346a3.457 3.457 0 0 0 .05-4.874 3.421 3.421 0 0 0-4.853-.05l-.05.05z"/>
    </g>
</svg>
