<svg xmlns="http://www.w3.org/2000/svg" xmlns:xlink="http://www.w3.org/1999/xlink" width="20" height="20" viewBox="0 0 20 20">
    <defs>
        <path id="a" d="M17.835 6.654l-2.162 2.514h1.66c0 4.02-3.271 7.29-7.29 7.29-2.211 0-4.193-.99-5.532-2.548v1.44a8.296 8.296 0 0 0 13.827-6.182h1.66l-2.163-2.514z"/>
    </defs>
    <g fill="none" fill-rule="evenodd">
        <path fill="#9AABAF" d="M1.744 10.001H.085l2.162 2.514 2.162-2.514H2.75c0-4.02 3.27-7.29 7.29-7.29 2.21 0 4.193.99 5.531 2.548V3.82a8.296 8.296 0 0 0-13.827 6.182z"/>
        <g transform="translate(0 .833)">
            <use fill="#9AABAF" xlink:href="#a"/>
            <path d="M17.835 6.654l-2.162 2.514h1.66c0 4.02-3.271 7.29-7.29 7.29-2.211 0-4.193-.99-5.532-2.548v1.44a8.296 8.296 0 0 0 13.827-6.182h1.66l-2.163-2.514z"/>
        </g>
        <path fill="#9AABAF" d="M9.998 10.787L6.23 8.277v4.562h7.536V8.278z"/>
        <path fill="#9AABAF" d="M9.998 5.769l3.768 2.509H6.23z"/>
    </g>
</svg>
