<svg xmlns="http://www.w3.org/2000/svg" width="20" height="20" viewBox="0 0 20 20">
    <path fill-rule="evenodd" d="M8.252 1.585c-1.78 0-3.455.694-4.714 1.953a6.623 6.623 0 0 0-1.953 4.714c0 1.78.694 3.455 1.953 4.714a6.622 6.622 0 0 0 4.714 1.952c1.78 0 3.455-.693 4.714-1.952a6.675 6.675 0 0 0 0-9.428 6.625 6.625 0 0 0-4.714-1.953zM18.879 20l-5.38-5.38a8.23 8.23 0 0 1-5.247 1.884 8.198 8.198 0 0 1-5.835-2.417A8.198 8.198 0 0 1 0 8.252c0-2.204.858-4.276 2.417-5.835A8.197 8.197 0 0 1 8.252 0a8.2 8.2 0 0 1 5.835 2.417 8.255 8.255 0 0 1 .534 11.082L20 18.88l-1.121 1.12z"/>
</svg>
