<svg xmlns="http://www.w3.org/2000/svg" width="20" height="20" viewBox="0 0 20 20">
    <g fill-rule="evenodd">
        <path d="M17.417 3.355l.002.027-.002-.027zm-.015-.174l.002.014-.002-.014zm-.024-.174zm.036.82l.004-.058c0 .02-.003.04-.004.059zm-.022.205zm-.031.195c.003-.017.005-.034.009-.05l-.01.05zm-3.373 1.188a1.849 1.849 0 0 1-1.847-1.846c0-1.019.829-1.847 1.847-1.847 1.019 0 1.847.828 1.847 1.847a1.849 1.849 0 0 1-1.847 1.846zM10.576 3.97zm-.018-.2l.005.058-.005-.059zm.049.407l.009.05-.009-.05zm-.048-.822l-.002.027.002-.027zm.016-.174l-.002.014.002-.014zm.024-.174zm6.744-.18A3.442 3.442 0 0 0 13.988.131a3.442 3.442 0 0 0-3.354 2.694H0v1.59h10.658a3.442 3.442 0 0 0 3.33 2.589 3.442 3.442 0 0 0 3.33-2.59H20V2.827h-2.657zM9.47 9.846l.002.026-.002-.026zm-.015-.175l.002.014-.002-.014zm-.024-.174zm.036.821l.004-.059-.004.06zm-.022.204zm-.032.195l.01-.05-.01.05zm-3.372 1.189a1.849 1.849 0 0 1-1.847-1.847c0-1.019.829-1.847 1.847-1.847 1.019 0 1.847.828 1.847 1.847a1.849 1.849 0 0 1-1.847 1.847zM2.63 10.46zm-.018-.202l.005.06-.005-.06zm.049.408l.009.05-.01-.05zm-.048-.821l-.002.026.002-.026zm.015-.175l-.001.014.001-.014zm.025-.174zm6.744-.18A3.441 3.441 0 0 0 6.04 6.623a3.442 3.442 0 0 0-3.354 2.694H0v1.589h2.71a3.442 3.442 0 0 0 3.331 2.589 3.442 3.442 0 0 0 3.33-2.59v.001H20v-1.59H9.396zM17.417 16.336l.002.027-.002-.027zm-.015-.175l.002.014-.002-.014zm-.024-.174zm.036.821l.004-.059c0 .02-.003.04-.004.06zm-.022.204zm-.031.195l.009-.05-.01.05zm-3.373 1.189a1.849 1.849 0 0 1-1.847-1.847c0-1.018.829-1.847 1.847-1.847 1.019 0 1.847.829 1.847 1.847a1.849 1.849 0 0 1-1.847 1.847zm-3.412-1.445zm-.018-.202l.005.06-.005-.06zm.049.408l.009.05-.009-.05zm-.048-.821l-.002.027.002-.027zm.016-.175l-.002.014.002-.014zm.024-.174zm6.744-.18a3.442 3.442 0 0 0-3.355-2.694 3.442 3.442 0 0 0-3.354 2.694H0v1.59h10.658v-.001a3.442 3.442 0 0 0 3.33 2.59 3.442 3.442 0 0 0 3.33-2.59H20v-1.59h-2.657z"/>
    </g>
</svg>
