<svg xmlns="http://www.w3.org/2000/svg" width="16" height="15" viewBox="0 0 16 15">
    <path fill="#4C72F4" fill-rule="evenodd" stroke="#9AABAF" stroke-width=".7" d="M3.205 9.233l4.707 2.464c.054.028.12.028.174 0l4.708-2.464 2.615 1.365-7.41 3.882-7.41-3.882 2.616-1.365zm0-3.162l4.707 2.464c.054.03.12.03.174 0l4.708-2.464 2.615 1.366-7.41 3.882-7.41-3.882L3.205 6.07zM7.999.4l7.41 3.882-7.41 3.876-7.41-3.876L8 .4zm-.04-.395a.19.19 0 0 0-.047.018l-7.81 4.09a.186.186 0 0 0 0 .332l2.702 1.412L.1 7.274a.186.186 0 0 0 0 .331l2.703 1.413L.1 10.436a.186.186 0 0 0 0 .33l7.81 4.092c.055.029.12.029.175 0l7.81-4.091a.186.186 0 0 0 0-.331l-2.702-1.418 2.703-1.413a.186.186 0 0 0 0-.33l-2.703-1.419 2.703-1.412a.186.186 0 0 0 0-.331L8.087.022a.185.185 0 0 0-.129-.018z"/>
</svg>
