<svg xmlns="http://www.w3.org/2000/svg" width="20" height="20" viewBox="0 0 20 20">
    <g fill-rule="evenodd">
        <path d="M6.273 3.199a2.621 2.621 0 0 0-2.618 2.618 2.621 2.621 0 0 0 2.618 2.619 2.621 2.621 0 0 0 2.619-2.619A2.621 2.621 0 0 0 6.273 3.2m0 6.837a4.224 4.224 0 0 1-4.218-4.219 4.224 4.224 0 0 1 4.218-4.219 4.224 4.224 0 0 1 4.22 4.22 4.224 4.224 0 0 1-4.22 4.218M1.692 16.886c.383-2.828 2.232-5.01 4.376-5.01s3.993 2.182 4.376 5.01H1.692zm13.535-5.137c1.46 0 2.726 1.452 3.063 3.374h-6.125c.337-1.922 1.603-3.374 3.062-3.374zm-3.191 4.975H20l-.026-.826c-.102-3.224-2.187-5.75-4.747-5.75-1.863 0-3.474 1.34-4.252 3.312-1.098-1.936-2.886-3.184-4.907-3.184-3.258 0-5.913 3.243-6.044 7.384l-.026.826h12.14l-.026-.826a9.842 9.842 0 0 0-.076-.936zM15.511 4.832c-.977 0-1.773.795-1.773 1.772 0 .978.796 1.773 1.773 1.773.977 0 1.773-.795 1.773-1.773 0-.977-.796-1.772-1.773-1.772m0 5.145a3.377 3.377 0 0 1-3.373-3.373 3.377 3.377 0 0 1 3.373-3.372 3.377 3.377 0 0 1 3.373 3.372 3.377 3.377 0 0 1-3.373 3.373"/>
    </g>
</svg>
