<svg xmlns="http://www.w3.org/2000/svg" width="20" height="20" viewBox="0 0 20 20">
    <g fill-rule="evenodd">
        <path stroke="#9AABAF" stroke-width=".2" d="M10.058 2.212c1.757 0 3.151 1.455 3.151 3.152s-1.454 3.152-3.151 3.152c-1.698 0-3.152-1.455-3.152-3.152S8.3 2.212 10.058 2.212m0 7.577c2.424 0 4.364-2 4.364-4.364S12.482 1 10.058 1C7.633 1 5.694 3 5.694 5.364s1.94 4.425 4.364 4.425"/>
        <path fill-rule="nonzero" d="M10.058 12.641c-2.485 0-4.67 2.096-5.38 5.13h10.76c-.71-3.034-2.895-5.13-5.38-5.13zm-7.095 6.496c.31-4.522 3.355-7.996 7.095-7.996 3.739 0 6.785 3.474 7.095 7.996l-.125.134H3.088l-.125-.134z"/>
    </g>
</svg>
