<svg xmlns="http://www.w3.org/2000/svg" width="20" height="20" viewBox="0 0 20 20">
    <g fill="#9AABAF" fill-rule="evenodd">
        <path d="M4.296 17.35h11.301V8.765H4.296v8.585zm3.143-9.88l.007-2.656a2.52 2.52 0 0 1 2.516-2.517 2.52 2.52 0 0 1 2.517 2.517l.006 2.656H7.44zm8.806 0h-2.464l-.006-3.038h-.019A3.83 3.83 0 0 0 9.963 1 3.832 3.832 0 0 0 6.152 4.72l-.01 2.75H3.647A.649.649 0 0 0 3 8.117v9.88c0 .357.29.648.647.648h12.598c.357 0 .648-.29.648-.648v-9.88a.649.649 0 0 0-.648-.648z"/>
        <path d="M9.962 11.081a.649.649 0 0 0-.647.647v2.658a.647.647 0 0 0 1.293 0l.001-2.658a.649.649 0 0 0-.647-.647"/>
    </g>
</svg>
